<svg width="150" height="178" viewBox="0 0 150 178" fill="none" xmlns="http://www.w3.org/2000/svg">
<g id="Group 26780">
<g id="Mask Group 1">
<path id="Ellipse 652" d="M75 167C116.421 167 150 133.421 150 92C150 50.5786 116.421 17 75 17C33.5786 17 0 50.5786 0 92C0 133.421 33.5786 167 75 167Z" fill="url(#paint0_linear_246_503)"/>
<g id="Group" filter="url(#filter0_d_246_503)">
<path id="Rectangle 5615" d="M118 60H32C29.2386 60 27 62.2386 27 65V170C27 172.761 29.2386 175 32 175H118C120.761 175 123 172.761 123 170V65C123 62.2386 120.761 60 118 60Z" fill="white"/>
</g>
<g id="Group 26776">
<path id="Rectangle 5617" d="M65 75H39C37.3431 75 36 76.3431 36 78C36 79.6569 37.3431 81 39 81H65C66.6569 81 68 79.6569 68 78C68 76.3431 66.6569 75 65 75Z" fill="#EEEEEE"/>
<path id="Rectangle 5618" d="M83 88H39C37.3431 88 36 89.3431 36 91C36 92.6569 37.3431 94 39 94H83C84.6569 94 86 92.6569 86 91C86 89.3431 84.6569 88 83 88Z" fill="#E4E4E4"/>
</g>
<g id="Group 26777">
<path id="Rectangle 5617_2" d="M65 102H39C37.3431 102 36 103.343 36 105C36 106.657 37.3431 108 39 108H65C66.6569 108 68 106.657 68 105C68 103.343 66.6569 102 65 102Z" fill="#EEEEEE"/>
<path id="Rectangle 5618_2" d="M83 115H39C37.3431 115 36 116.343 36 118C36 119.657 37.3431 121 39 121H83C84.6569 121 86 119.657 86 118C86 116.343 84.6569 115 83 115Z" fill="#E4E4E4"/>
</g>
<g id="Group 26778">
<path id="Rectangle 5617_3" d="M65 129H39C37.3431 129 36 130.343 36 132C36 133.657 37.3431 135 39 135H65C66.6569 135 68 133.657 68 132C68 130.343 66.6569 129 65 129Z" fill="#EEEEEE"/>
<path id="Rectangle 5618_3" d="M83 142H39C37.3431 142 36 143.343 36 145C36 146.657 37.3431 148 39 148H83C84.6569 148 86 146.657 86 145C86 143.343 84.6569 142 83 142Z" fill="#E4E4E4"/>
</g>
</g>
<g id="Group 26779">
<g id="Group_2" filter="url(#filter1_d_246_503)">
<path id="Rectangle 5616" d="M118 9H32C29.2386 9 27 11.2386 27 14V44C27 46.7614 29.2386 49 32 49H118C120.761 49 123 46.7614 123 44V14C123 11.2386 120.761 9 118 9Z" fill="#8D8D8D"/>
</g>
<g id="Group 26775">
<path id="Rectangle 5617_4" d="M65 20H39C37.3431 20 36 21.3431 36 23C36 24.6569 37.3431 26 39 26H65C66.6569 26 68 24.6569 68 23C68 21.3431 66.6569 20 65 20Z" fill="#EEEEEE"/>
<path id="Rectangle 5618_4" d="M83 33H39C37.3431 33 36 34.3431 36 36C36 37.6569 37.3431 39 39 39H83C84.6569 39 86 37.6569 86 36C86 34.3431 84.6569 33 83 33Z" fill="white"/>
</g>
</g>
</g>
<defs>
<filter id="filter0_d_246_503" x="21" y="51" width="108" height="127" filterUnits="userSpaceOnUse" color-interpolation-filters="sRGB">
<feFlood flood-opacity="0" result="BackgroundImageFix"/>
<feColorMatrix in="SourceAlpha" type="matrix" values="0 0 0 0 0 0 0 0 0 0 0 0 0 0 0 0 0 0 127 0" result="hardAlpha"/>
<feOffset dy="-3"/>
<feGaussianBlur stdDeviation="3"/>
<feColorMatrix type="matrix" values="0 0 0 0 0.788235 0 0 0 0 0.803922 0 0 0 0 0.85098 0 0 0 0.349 0"/>
<feBlend mode="normal" in2="BackgroundImageFix" result="effect1_dropShadow_246_503"/>
<feBlend mode="normal" in="SourceGraphic" in2="effect1_dropShadow_246_503" result="shape"/>
</filter>
<filter id="filter1_d_246_503" x="21" y="0" width="108" height="52" filterUnits="userSpaceOnUse" color-interpolation-filters="sRGB">
<feFlood flood-opacity="0" result="BackgroundImageFix"/>
<feColorMatrix in="SourceAlpha" type="matrix" values="0 0 0 0 0 0 0 0 0 0 0 0 0 0 0 0 0 0 127 0" result="hardAlpha"/>
<feOffset dy="-3"/>
<feGaussianBlur stdDeviation="3"/>
<feColorMatrix type="matrix" values="0 0 0 0 0.788235 0 0 0 0 0.803922 0 0 0 0 0.85098 0 0 0 0.349 0"/>
<feBlend mode="normal" in2="BackgroundImageFix" result="effect1_dropShadow_246_503"/>
<feBlend mode="normal" in="SourceGraphic" in2="effect1_dropShadow_246_503" result="shape"/>
</filter>
<linearGradient id="paint0_linear_246_503" x1="75" y1="17" x2="75" y2="167" gradientUnits="userSpaceOnUse">
<stop stop-color="#E5E8ED"/>
<stop offset="1" stop-color="#E0E4EC"/>
</linearGradient>
</defs>
</svg>
